<mxfile host="app.diagrams.net" modified="2022-02-16T08:30:55.716Z" agent="5.0 (Windows NT 10.0; Win64; x64) AppleWebKit/537.36 (KHTML, like Gecko) Chrome/98.0.4758.87 Safari/537.36" etag="O08hVCN5AwWVzieWPFz4" version="16.5.6" type="github">
  <diagram id="R2lEEEUBdFMjLlhIrx00" name="Page-1">
    <mxGraphModel dx="2128" dy="1651" grid="1" gridSize="10" guides="1" tooltips="1" connect="1" arrows="1" fold="1" page="1" pageScale="1" pageWidth="850" pageHeight="1100" math="0" shadow="0" extFonts="Permanent Marker^https://fonts.googleapis.com/css?family=Permanent+Marker">
      <root>
        <mxCell id="0" />
        <mxCell id="1" parent="0" />
        <mxCell id="xkxfY68FZ7Ic_4UuyNyU-8" value="" style="edgeStyle=orthogonalEdgeStyle;rounded=0;orthogonalLoop=1;jettySize=auto;html=1;" edge="1" parent="1" source="xkxfY68FZ7Ic_4UuyNyU-1" target="xkxfY68FZ7Ic_4UuyNyU-7">
          <mxGeometry relative="1" as="geometry" />
        </mxCell>
        <mxCell id="xkxfY68FZ7Ic_4UuyNyU-10" value="" style="edgeStyle=orthogonalEdgeStyle;rounded=0;orthogonalLoop=1;jettySize=auto;html=1;" edge="1" parent="1" source="xkxfY68FZ7Ic_4UuyNyU-1" target="xkxfY68FZ7Ic_4UuyNyU-9">
          <mxGeometry relative="1" as="geometry" />
        </mxCell>
        <mxCell id="xkxfY68FZ7Ic_4UuyNyU-12" value="" style="edgeStyle=orthogonalEdgeStyle;rounded=0;orthogonalLoop=1;jettySize=auto;html=1;" edge="1" parent="1" source="xkxfY68FZ7Ic_4UuyNyU-1" target="xkxfY68FZ7Ic_4UuyNyU-11">
          <mxGeometry relative="1" as="geometry" />
        </mxCell>
        <mxCell id="xkxfY68FZ7Ic_4UuyNyU-15" value="" style="edgeStyle=elbowEdgeStyle;rounded=0;orthogonalLoop=1;jettySize=auto;html=1;" edge="1" parent="1" source="xkxfY68FZ7Ic_4UuyNyU-1" target="xkxfY68FZ7Ic_4UuyNyU-14">
          <mxGeometry relative="1" as="geometry" />
        </mxCell>
        <mxCell id="xkxfY68FZ7Ic_4UuyNyU-40" value="" style="edgeStyle=elbowEdgeStyle;rounded=0;orthogonalLoop=1;jettySize=auto;html=1;" edge="1" parent="1" source="xkxfY68FZ7Ic_4UuyNyU-1" target="xkxfY68FZ7Ic_4UuyNyU-39">
          <mxGeometry relative="1" as="geometry" />
        </mxCell>
        <mxCell id="xkxfY68FZ7Ic_4UuyNyU-42" value="" style="edgeStyle=elbowEdgeStyle;rounded=0;orthogonalLoop=1;jettySize=auto;html=1;" edge="1" parent="1" source="xkxfY68FZ7Ic_4UuyNyU-1" target="xkxfY68FZ7Ic_4UuyNyU-41">
          <mxGeometry relative="1" as="geometry" />
        </mxCell>
        <mxCell id="xkxfY68FZ7Ic_4UuyNyU-49" value="" style="edgeStyle=elbowEdgeStyle;rounded=0;orthogonalLoop=1;jettySize=auto;html=1;" edge="1" parent="1" source="xkxfY68FZ7Ic_4UuyNyU-1" target="xkxfY68FZ7Ic_4UuyNyU-48">
          <mxGeometry relative="1" as="geometry" />
        </mxCell>
        <mxCell id="xkxfY68FZ7Ic_4UuyNyU-1" value="User" style="whiteSpace=wrap;html=1;align=center;" vertex="1" parent="1">
          <mxGeometry x="345" y="180" width="100" height="40" as="geometry" />
        </mxCell>
        <mxCell id="xkxfY68FZ7Ic_4UuyNyU-7" value="user_ID" style="ellipse;whiteSpace=wrap;html=1;" vertex="1" parent="1">
          <mxGeometry x="235" y="270" width="120" height="60" as="geometry" />
        </mxCell>
        <mxCell id="xkxfY68FZ7Ic_4UuyNyU-9" value="user_email" style="ellipse;whiteSpace=wrap;html=1;" vertex="1" parent="1">
          <mxGeometry x="425" y="270" width="120" height="60" as="geometry" />
        </mxCell>
        <mxCell id="xkxfY68FZ7Ic_4UuyNyU-19" value="" style="edgeStyle=elbowEdgeStyle;rounded=0;orthogonalLoop=1;jettySize=auto;html=1;" edge="1" parent="1" source="xkxfY68FZ7Ic_4UuyNyU-11" target="xkxfY68FZ7Ic_4UuyNyU-18">
          <mxGeometry relative="1" as="geometry" />
        </mxCell>
        <mxCell id="xkxfY68FZ7Ic_4UuyNyU-11" value="book ticket" style="rhombus;whiteSpace=wrap;html=1;" vertex="1" parent="1">
          <mxGeometry x="620" y="160" width="80" height="80" as="geometry" />
        </mxCell>
        <mxCell id="xkxfY68FZ7Ic_4UuyNyU-17" value="" style="edgeStyle=elbowEdgeStyle;rounded=0;orthogonalLoop=1;jettySize=auto;html=1;" edge="1" parent="1" source="xkxfY68FZ7Ic_4UuyNyU-14" target="xkxfY68FZ7Ic_4UuyNyU-16">
          <mxGeometry relative="1" as="geometry" />
        </mxCell>
        <mxCell id="xkxfY68FZ7Ic_4UuyNyU-14" value="checks for" style="rhombus;whiteSpace=wrap;html=1;" vertex="1" parent="1">
          <mxGeometry x="70" y="160" width="80" height="80" as="geometry" />
        </mxCell>
        <mxCell id="xkxfY68FZ7Ic_4UuyNyU-21" value="" style="edgeStyle=elbowEdgeStyle;rounded=0;orthogonalLoop=1;jettySize=auto;html=1;" edge="1" parent="1" source="xkxfY68FZ7Ic_4UuyNyU-16" target="xkxfY68FZ7Ic_4UuyNyU-20">
          <mxGeometry relative="1" as="geometry" />
        </mxCell>
        <mxCell id="xkxfY68FZ7Ic_4UuyNyU-23" value="" style="edgeStyle=elbowEdgeStyle;rounded=0;orthogonalLoop=1;jettySize=auto;html=1;" edge="1" parent="1" source="xkxfY68FZ7Ic_4UuyNyU-16" target="xkxfY68FZ7Ic_4UuyNyU-22">
          <mxGeometry relative="1" as="geometry" />
        </mxCell>
        <mxCell id="xkxfY68FZ7Ic_4UuyNyU-25" value="" style="edgeStyle=elbowEdgeStyle;rounded=0;orthogonalLoop=1;jettySize=auto;html=1;" edge="1" parent="1" source="xkxfY68FZ7Ic_4UuyNyU-16" target="xkxfY68FZ7Ic_4UuyNyU-24">
          <mxGeometry relative="1" as="geometry" />
        </mxCell>
        <mxCell id="xkxfY68FZ7Ic_4UuyNyU-16" value="Train" style="whiteSpace=wrap;html=1;" vertex="1" parent="1">
          <mxGeometry x="50" y="330" width="120" height="60" as="geometry" />
        </mxCell>
        <mxCell id="xkxfY68FZ7Ic_4UuyNyU-27" value="" style="edgeStyle=elbowEdgeStyle;rounded=0;orthogonalLoop=1;jettySize=auto;html=1;" edge="1" parent="1" source="xkxfY68FZ7Ic_4UuyNyU-18" target="xkxfY68FZ7Ic_4UuyNyU-26">
          <mxGeometry relative="1" as="geometry" />
        </mxCell>
        <mxCell id="xkxfY68FZ7Ic_4UuyNyU-18" value="Ticket" style="whiteSpace=wrap;html=1;" vertex="1" parent="1">
          <mxGeometry x="600" y="330" width="120" height="60" as="geometry" />
        </mxCell>
        <mxCell id="xkxfY68FZ7Ic_4UuyNyU-20" value="" style="ellipse;whiteSpace=wrap;html=1;" vertex="1" parent="1">
          <mxGeometry x="-70" y="430" width="120" height="60" as="geometry" />
        </mxCell>
        <mxCell id="xkxfY68FZ7Ic_4UuyNyU-22" value="" style="ellipse;whiteSpace=wrap;html=1;" vertex="1" parent="1">
          <mxGeometry x="170" y="430" width="120" height="60" as="geometry" />
        </mxCell>
        <mxCell id="xkxfY68FZ7Ic_4UuyNyU-32" value="" style="edgeStyle=elbowEdgeStyle;rounded=0;orthogonalLoop=1;jettySize=auto;html=1;" edge="1" parent="1" source="xkxfY68FZ7Ic_4UuyNyU-24" target="xkxfY68FZ7Ic_4UuyNyU-31">
          <mxGeometry relative="1" as="geometry" />
        </mxCell>
        <mxCell id="xkxfY68FZ7Ic_4UuyNyU-24" value="Has" style="rhombus;whiteSpace=wrap;html=1;" vertex="1" parent="1">
          <mxGeometry x="70" y="520" width="80" height="80" as="geometry" />
        </mxCell>
        <mxCell id="xkxfY68FZ7Ic_4UuyNyU-29" value="" style="edgeStyle=elbowEdgeStyle;rounded=0;orthogonalLoop=1;jettySize=auto;html=1;" edge="1" parent="1" source="xkxfY68FZ7Ic_4UuyNyU-26" target="xkxfY68FZ7Ic_4UuyNyU-28">
          <mxGeometry relative="1" as="geometry" />
        </mxCell>
        <mxCell id="xkxfY68FZ7Ic_4UuyNyU-26" value="Pays" style="rhombus;whiteSpace=wrap;html=1;" vertex="1" parent="1">
          <mxGeometry x="630" y="510" width="80" height="80" as="geometry" />
        </mxCell>
        <mxCell id="xkxfY68FZ7Ic_4UuyNyU-28" value="Payment" style="whiteSpace=wrap;html=1;" vertex="1" parent="1">
          <mxGeometry x="610" y="680" width="120" height="60" as="geometry" />
        </mxCell>
        <mxCell id="xkxfY68FZ7Ic_4UuyNyU-34" value="" style="edgeStyle=elbowEdgeStyle;rounded=0;orthogonalLoop=1;jettySize=auto;html=1;" edge="1" parent="1" source="xkxfY68FZ7Ic_4UuyNyU-30" target="xkxfY68FZ7Ic_4UuyNyU-33">
          <mxGeometry relative="1" as="geometry" />
        </mxCell>
        <mxCell id="xkxfY68FZ7Ic_4UuyNyU-36" value="" style="edgeStyle=elbowEdgeStyle;rounded=0;orthogonalLoop=1;jettySize=auto;html=1;" edge="1" parent="1" source="xkxfY68FZ7Ic_4UuyNyU-30" target="xkxfY68FZ7Ic_4UuyNyU-35">
          <mxGeometry relative="1" as="geometry" />
        </mxCell>
        <mxCell id="xkxfY68FZ7Ic_4UuyNyU-38" value="" style="edgeStyle=elbowEdgeStyle;rounded=0;orthogonalLoop=1;jettySize=auto;html=1;" edge="1" parent="1" source="xkxfY68FZ7Ic_4UuyNyU-30" target="xkxfY68FZ7Ic_4UuyNyU-37">
          <mxGeometry relative="1" as="geometry" />
        </mxCell>
        <mxCell id="xkxfY68FZ7Ic_4UuyNyU-30" value="Class" style="whiteSpace=wrap;html=1;align=center;" vertex="1" parent="1">
          <mxGeometry x="400" y="430" width="100" height="40" as="geometry" />
        </mxCell>
        <mxCell id="xkxfY68FZ7Ic_4UuyNyU-31" value="Route" style="whiteSpace=wrap;html=1;" vertex="1" parent="1">
          <mxGeometry x="50" y="690" width="120" height="60" as="geometry" />
        </mxCell>
        <mxCell id="xkxfY68FZ7Ic_4UuyNyU-33" value="fare" style="ellipse;whiteSpace=wrap;html=1;" vertex="1" parent="1">
          <mxGeometry x="280" y="510" width="120" height="60" as="geometry" />
        </mxCell>
        <mxCell id="xkxfY68FZ7Ic_4UuyNyU-35" value="train_no" style="ellipse;whiteSpace=wrap;html=1;" vertex="1" parent="1">
          <mxGeometry x="390" y="570" width="120" height="60" as="geometry" />
        </mxCell>
        <mxCell id="xkxfY68FZ7Ic_4UuyNyU-37" value="class type" style="ellipse;whiteSpace=wrap;html=1;" vertex="1" parent="1">
          <mxGeometry x="500" y="510" width="120" height="60" as="geometry" />
        </mxCell>
        <mxCell id="xkxfY68FZ7Ic_4UuyNyU-39" value="user_name" style="ellipse;whiteSpace=wrap;html=1;" vertex="1" parent="1">
          <mxGeometry x="200" y="70" width="120" height="60" as="geometry" />
        </mxCell>
        <mxCell id="xkxfY68FZ7Ic_4UuyNyU-41" value="user_mobile_no" style="ellipse;whiteSpace=wrap;html=1;" vertex="1" parent="1">
          <mxGeometry x="335" y="-30" width="120" height="60" as="geometry" />
        </mxCell>
        <mxCell id="xkxfY68FZ7Ic_4UuyNyU-48" value="user_DOB" style="ellipse;whiteSpace=wrap;html=1;" vertex="1" parent="1">
          <mxGeometry x="455" y="70" width="120" height="60" as="geometry" />
        </mxCell>
      </root>
    </mxGraphModel>
  </diagram>
</mxfile>
